<?xml version="1.0" encoding="utf-8"?>
<!-- Generator: Adobe Illustrator 19.1.0, SVG Export Plug-In . SVG Version: 6.00 Build 0)  -->
<svg version="1.1" id="Layer_1" xmlns="http://www.w3.org/2000/svg" xmlns:xlink="http://www.w3.org/1999/xlink" x="0px" y="0px"
	 viewBox="0 0 188.1 43.3" style="enable-background:new 0 0 188.1 43.3;" xml:space="preserve">
<style type="text/css">
	.st0{clip-path:url(#SVGID_2_);fill:#3A270B;}
</style>
<g>
	<defs>
		<rect id="SVGID_1_" y="0" width="188.1" height="43.3"/>
	</defs>
	<clipPath id="SVGID_2_">
		<use xlink:href="#SVGID_1_"  style="overflow:visible;"/>
	</clipPath>
	<path class="st0" d="M174.8,40.2c0,0,2.4,3.1,6.8,3.1c4.1,0,6.5-2.7,6.5-5.9c0-6.8-9.9-5.8-9.9-10c0-1.5,1.4-2.8,3.6-2.8
		c1.6,0,3.2,0.8,3.2,1.9v1h2.7v-1.7c0-2.8-3.7-3.8-5.9-3.8c-3.9,0-6.6,2.4-6.6,5.5c0,6.4,9.9,5.7,9.9,10c0,1.9-1.6,3.1-3.5,3.1
		c-3.1,0-5.2-2.5-5.2-2.5L174.8,40.2z M160.8,32.2v-7.4h3.8c2.2,0,3.5,1.3,3.5,3.6c0,2.3-1.3,3.7-3.5,3.7H160.8z M157.9,42.9h2.9
		v-8.2h2.7c1.1,0,1.5,0.1,2,1.1l2.8,5.5c0.7,1.3,1.3,1.5,2.9,1.5h1.4v-2.5h-0.4c-0.7,0-1.2-0.1-1.5-0.7l-2.5-4.9
		c-0.3-0.7-0.9-0.9-0.9-0.9v-0.1c1.5-0.3,3.7-2,3.7-5.4c0-3.8-2.5-6-6.1-6h-9v2.5h1.9V42.9z M141,41.1c0,1.3,0.6,1.9,1.9,1.9h9.1
		c1.3,0,1.9-0.6,1.9-1.9v-2.6h-2.7v1.3c0,0.4-0.2,0.6-0.6,0.6h-6c-0.4,0-0.6-0.2-0.6-0.6v-6h7.2v-2.5h-7.2v-6.4h5.9
		c0.4,0,0.6,0.2,0.6,0.6v1.3h2.6v-2.6c0-1.3-0.6-1.9-1.9-1.9h-12.1v2.5h1.9V41.1z M124,41.1c0,1.3,0.6,1.9,1.9,1.9h9.1
		c1.3,0,1.9-0.6,1.9-1.9v-2.6h-2.7v1.3c0,0.4-0.2,0.6-0.6,0.6h-6c-0.4,0-0.6-0.2-0.6-0.6v-6h7.2v-2.5H127v-6.4h5.9
		c0.4,0,0.6,0.2,0.6,0.6v1.3h2.7v-2.6c0-1.3-0.6-1.9-1.9-1.9h-12.1v2.5h1.9V41.1z M109.5,42.9h2.9V24.9h4.1c0.4,0,0.6,0.2,0.6,0.6
		v1.3h2.6v-2.7c0-1.3-0.4-1.7-1.7-1.7h-14.2c-1.3,0-1.7,0.4-1.7,1.7v2.7h2.6v-1.3c0-0.4,0.2-0.6,0.6-0.6h4.1V42.9z M79.8,42.9h2.9
		c1.3,0,1.9-0.6,1.9-1.9V29.9c0-1.1-0.2-2.8-0.2-2.8h0.1c0,0,0.9,1.7,1.7,2.8l9.2,13h2.6V25.5c0-0.4,0.2-0.6,0.6-0.6h1.3v-2.5h-2.9
		c-1.3,0-1.9,0.6-1.9,1.9v11.2c0,1.2,0.2,2.8,0.2,2.8h-0.1c0,0-1-1.7-1.7-2.8l-9.1-13h-2.6v17.4c0,0.4-0.2,0.6-0.6,0.6h-1.3V42.9z
		 M60.2,35.7c0,4.5,3.1,7.5,7.9,7.5c4.7,0,7.8-3.1,7.8-7.5V25.5c0-0.4,0.2-0.6,0.6-0.6h1.3v-2.5h-2.9c-1.3,0-1.9,0.6-1.9,1.9v11.4
		c0,3.1-2,5-4.9,5s-4.9-1.8-4.9-4.9V24.2c0-1.3-0.6-1.9-1.9-1.9h-2.9v2.5h1.3c0.4,0,0.6,0.2,0.6,0.6V35.7z M44.8,41.1
		c0,1.3,0.6,1.9,1.9,1.9h8.8c1.3,0,1.9-0.6,1.9-1.9v-2.6h-2.7v1.3c0,0.4-0.2,0.6-0.6,0.6h-5.7c-0.4,0-0.6-0.2-0.6-0.6V24.2
		c0-1.3-0.6-1.9-1.9-1.9h-2.9v2.5h1.3c0.4,0,0.6,0.2,0.6,0.6V41.1z M22.6,32.5c0-4.4,3.3-7.8,7.5-7.8s7.5,3.4,7.5,7.8
		c0,4.5-3.4,8-7.5,8S22.6,37,22.6,32.5 M19.5,32.5c0,6.1,4.6,10.8,10.5,10.8s10.6-4.7,10.6-10.8C40.7,26.6,36,22,30.1,22
		S19.5,26.6,19.5,32.5 M7.8,42.9h3.1l6.5-17.4c0.2-0.5,0.4-0.6,1-0.6h0.4v-2.5h-1.6c-1.5,0-1.9,0.3-2.4,1.7l-4.5,12.7
		c-0.4,1.1-0.8,2.8-0.8,2.8H9.3c0,0-0.4-1.7-0.8-2.8L4,24c-0.5-1.4-1-1.7-2.4-1.7H0v2.5h0.4c0.5,0,0.8,0.1,1,0.6L7.8,42.9z"/>
	<path class="st0" d="M169.5,15.9h7.5V13h-1.8V7.8c0-0.7-0.1-1.7-0.1-1.7h0.1c0,0,0.3,1,0.7,1.6l4.9,8.2h3.9V3.1h1.7V0.3h-7.5v2.8
		h1.8v5.3c0,0.7,0.1,1.7,0.1,1.7h-0.1c0,0-0.3-1-0.7-1.6l-4.9-8.3h-5.7v2.8h1.7V13h-1.7V15.9z M145,3.1h1.3l3.1,12.8h4.3l2-8
		c0.2-0.8,0.3-1.7,0.3-1.7h0.1c0,0,0.1,1,0.3,1.7l2,8h4.3l3.1-12.8h1.3V0.3h-6.9v2.8h1.8l-1.4,6.9c-0.2,0.8-0.2,1.6-0.2,1.6h-0.1
		c0,0-0.1-0.9-0.3-1.6l-2.4-9.8h-3l-2.4,9.8c-0.2,0.8-0.3,1.6-0.3,1.6h-0.1c0,0,0-0.9-0.2-1.6l-1.4-6.9h1.8V0.3H145V3.1z M131,8
		c0-2.6,1.9-4.6,4.2-4.6s4.2,2,4.2,4.6c0,2.7-1.9,4.8-4.2,4.8S131,10.7,131,8 M127,8c0,4.6,3.5,8.2,8.2,8.2s8.2-3.6,8.2-8.2
		c0-4.5-3.4-8-8.2-8S127,3.5,127,8 M114,15.9h7.4V13h-1.7V3.3h1.9v2.2h3.3V0.3h-14.2v5.3h3.3V3.3h1.9V13H114V15.9z M91.3,15.9h7.5
		V13h-1.8V7.8c0-0.7-0.1-1.7-0.1-1.7h0.1c0,0,0.3,1,0.7,1.6l4.9,8.2h3.9V3.1h1.7V0.3h-7.5v2.8h1.8v5.3c0,0.7,0.1,1.7,0.1,1.7h-0.1
		c0,0-0.3-1-0.7-1.6L97,0.3h-5.7v2.8H93V13h-1.7V15.9z M79.9,8l0.8-2.9C81,4.1,81,3.5,81,3.5h0.1c0,0,0,0.7,0.3,1.6L82.2,8H79.9z
		 M73.3,15.9h6.5V13h-1.4l0.6-2.1h4l0.6,2.1h-1.4v2.8h6.5V13h-1.3L83.3,0.3h-4.5L74.6,13h-1.3V15.9z M51,15.9h7.1V13h-1.5l0.4-5.6
		c0-0.7-0.1-1.7-0.1-1.7h0.1c0,0,0.2,1,0.4,1.7l2.1,5.7h3.3l2.1-5.7c0.2-0.7,0.4-1.7,0.4-1.7h0.1c0,0-0.1,1.1-0.1,1.7l0.4,5.6H64
		v2.8H71V13h-1.7l-0.8-9.9h1.7V0.3h-6.1L61.5,8c-0.3,1-0.4,1.6-0.4,1.6h0c0,0-0.1-0.7-0.4-1.6L58,0.3h-6.1v2.8h1.7L52.7,13H51V15.9z
		 M39.8,7.3v-4h1.4c0.7,0,1.2,0.1,1.5,0.3c0.7,0.3,0.9,1,0.9,1.7c0,1.4-0.8,2-2,2H39.8z M34.1,15.9h7.3V13h-1.6v-2.6h0.8
		c0.8,0,1.1,0.2,1.4,0.7l1.9,3.6c0.4,0.9,0.9,1.2,2.2,1.2h2.6V13H48c-0.5,0-0.8-0.1-1-0.5l-1.2-2.3c-0.3-0.7-1-0.9-1-0.9v0
		C46.4,8.4,47.4,7,47.4,5c0-2.3-1.2-3.8-3.1-4.4c-0.9-0.3-1.9-0.3-3.1-0.3h-7.1v2.8h1.7V13h-1.7V15.9z M18.6,15.9h12.3v-4.6h-3.3
		v1.6h-3.4V9.5h4.6V6.5h-4.6V3.3h3.1v1.6h3.3V0.3h-12v2.8h1.7V13h-1.7V15.9z M0.4,8c0,4.7,3.5,8.2,8.3,8.2c2.3,0,6.7-0.8,6.7-3.1
		V7.8h-6v2.8h2.5v1.1c0,0.9-1.7,1.1-2.7,1.1c-3.1,0-4.8-2.1-4.8-5.1c0-2.9,1.7-4.5,4.5-4.5c1.4,0,2.6,0.4,2.6,1.2v1.1H15V3.1
		c0-2-3.5-3.1-6.3-3.1C3.9,0,0.4,3.3,0.4,8"/>
</g>
</svg>
